<?xml version="1.0" encoding="UTF-8"?>
<svg id="katman_2" data-name="katman 2" xmlns="http://www.w3.org/2000/svg" viewBox="0 0 31.21 29.78">
  <defs>
    <style>
      .cls-1 {
        fill: #1d1d1b;
      }
    </style>
  </defs>
  <g id="katman_1" data-name="katman 1">
    <g id="Group_1" data-name="Group 1">
      <path id="Path_1" data-name="Path 1" class="cls-1" d="M16.03,0c.53.11,1.03.34,1.47.67l12.98,12.36c.37.42.62.93.73,1.48v.7c-.17,1-.86,1.84-1.82,2.19-.21.08-.43.14-.66.19,0,0-.66-2.3-.88,0-.22,2.3,0,9.2,0,9.2-.19,1.53-1.4,2.74-2.93,2.93h-5.6c-.39-.11-.67-.44-.73-.84-.16-2.31.21-4.86,0-7.14-.05-.64-.51-1.16-1.14-1.3-1.26-.13-2.54-.12-3.8.02-.5.15-.89.55-1.02,1.06l-.02,7.3c-.03.42-.32.79-.73.9-1.77-.14-3.87.19-5.6,0-1.53-.2-2.73-1.4-2.93-2.93v-9.2h-.89c-1.87,0-3.22-2.77-2.03-4.2C4.91,9,9.45,4.68,14.06.42c.35-.19.73-.33,1.12-.42h.85Z"/>
    </g>
  </g>
</svg>