<?xml version="1.0" encoding="UTF-8"?>
<svg id="katman_2" data-name="katman 2" xmlns="http://www.w3.org/2000/svg" viewBox="0 0 31.74 22.28">
  <defs>
    <style>
      .cls-1 {
        fill: #1d1d1b;
      }
    </style>
  </defs>
  <g id="katman_1" data-name="katman 1">
    <g id="Group_24" data-name="Group 24">
      <path id="Path_18" data-name="Path 18" class="cls-1" d="M30.23,12.92c.98-.16,1.65-1.09,1.49-2.07-.12-.76-.72-1.36-1.49-1.49h-.02l-28.8.02h-.06c-.97.26-1.54,1.25-1.29,2.21.18.68.74,1.2,1.44,1.32h28.74Z"/>
      <path id="Path_19" data-name="Path 19" class="cls-1" d="M9.34,3.56h20.89c.88-.14,1.52-.9,1.5-1.78.02-.88-.63-1.64-1.5-1.77h-.02L9.25.02h-.06c-.84.21-1.43.98-1.38,1.85.03.86.68,1.57,1.53,1.69"/>
      <path id="Path_20" data-name="Path 20" class="cls-1" d="M30.31,18.73h-.03s-14.8,0-14.8,0h-.06c-.82.2-1.39.95-1.35,1.79,0,.84.6,1.56,1.43,1.73h.03s14.68.01,14.68.01h.04c.98-.17,1.64-1.1,1.47-2.09-.13-.72-.68-1.3-1.39-1.46"/>
    </g>
  </g>
</svg>