<?xml version="1.0" encoding="UTF-8"?>
<svg id="katman_2" data-name="katman 2" xmlns="http://www.w3.org/2000/svg" viewBox="0 0 26.13 26.12">
  <defs>
    <style>
      .cls-1 {
        fill: #1d1d1b;
      }
    </style>
  </defs>
  <g id="katman_1" data-name="katman 1">
    <g id="Group_16" data-name="Group 16">
      <path id="Path_14" data-name="Path 14" class="cls-1" d="M10.66.03c6.36-.44,11.87,4.35,12.31,10.71.19,2.76-.62,5.5-2.28,7.72l4.93,4.94c.64.58.69,1.57.11,2.21s-1.57.69-2.21.11l-5.06-5.03c-5.07,3.84-12.29,2.84-16.13-2.23C-1.5,13.38-.5,6.16,4.57,2.32,6.33.99,8.45.19,10.66.02M10.59,3.14C4.18,3.72.92,11.41,4.77,16.54c2.78,3.72,8.05,4.49,11.77,1.71,3.72-2.78,4.49-8.05,1.71-11.77-1.78-2.39-4.7-3.65-7.66-3.33"/>
    </g>
  </g>
</svg>