<?xml version="1.0" encoding="UTF-8"?>
<svg id="katman_2" data-name="katman 2" xmlns="http://www.w3.org/2000/svg" viewBox="0 0 31.98 31.99">
  <defs>
    <style>
      .cls-1 {
        fill: #1d1d1b;
      }
    </style>
  </defs>
  <g id="katman_1" data-name="katman 1">
    <g id="katman_2-3" data-name="katman 2-3">
      <g id="Group_31" data-name="Group 31">
        <path id="Path_46" data-name="Path 46" class="cls-1" d="M.52.08C.28.06.07.25.06.49c0,.02,0,.03,0,.05L0,.63v2.81l.05.09c.05.3.33.51.63.46.25-.01.51,0,.82,0-.45.76-.9,1.44-1.29,2.16-.14.27-.17.58-.1.87.08.27.4.36.71.33.19-.02.39,0,.65,0-.41.69-.82,1.33-1.2,2-.12.19-.19.41-.22.63-.04.49.19.71.7.73.22,0,.44,0,.7,0-.45.75-.9,1.46-1.3,2.2-.1.24-.12.51-.05.76.07.26.34.34.62.31.28-.02.57.02.86-.01.32-.03.4.09.4.4-.01,2.66,0,5.33,0,7.99,0,1.86,0,3.72,0,5.58l-.06.07c-.41,0-.83.02-1.24,0-.3-.04-.58.16-.63.46L0,28.56v2.81l.05.1c0,.24.18.45.43.45.01,0,.03,0,.04,0l.09.06c.1,0,.21.01.31.01h30.11c.1,0,.21,0,.31-.01h.08l.47-.37.06-.24v-2.81c-.02-.06-.04-.11-.05-.17-.1-.36-.39-.44-.7-.45-.39-.02-.78-.01-1.17-.01l-.06-.07v-13.72l.05-.07c.39,0,.78,0,1.17-.01.38.04.73-.24.77-.62.02-.17-.03-.34-.12-.48-.35-.64-.74-1.26-1.1-1.88-.06-.1-.12-.21-.21-.37h.62c.75,0,1.04-.52.66-1.16-.36-.62-.73-1.23-1.1-1.85-.04-.07-.08-.15-.12-.23.3-.02.6-.07.9-.13.36-.09.58-.46.49-.82-.02-.08-.05-.15-.1-.21-.22-.37-.45-.73-.67-1.09s-.42-.71-.67-1.14c.25,0,.46.01.67,0,.32-.02.6-.1.7-.46.02-.06.04-.11.05-.17V.47l-.53-.46h-.08c-.1,0-.21-.01-.31-.01H.92c-.11,0-.21.01-.31.01l-.09.06ZM30.54,1.38l.05.05v1.22H1.35v-1.23l.05-.05c.1,0,.21-.01.31-.01h28.52c.1,0,.21,0,.31.01h0ZM30.59,30.58l-.05.05c-.1,0-.21.01-.31.01H1.71c-.1,0-.21-.01-.31-.01l-.05-.05v-1.22h29.24v1.22h0ZM30.01,9.31c-.1,0-.21.02-.31.02H2.24c-.1,0-.21,0-.31-.01l-.04.04-.02-.03.05-.04,1.12-1.87.07-.06c.16,0,.31-.01.47-.01h25.02c.2-.03.4.08.49.27.29.54.62,1.07.93,1.6.02.04.03.09.05.13l-.05-.02h0ZM30.08,12.63l-.07.03c-.16,0-.31-.01-.47-.01H2.4c-.16,0-.31,0-.47-.01l-.03.04v-.02s.02,0,.03-.01c.3-.53.65-1.05.9-1.61.09-.25.36-.4.62-.35,5.37,0,10.75,0,16.12,0,3,0,6,0,9,0,.17,0,.34.06.46.19.37.57.7,1.17,1.04,1.75h0ZM3.03,4.07l.08-.04h25.72l.09.02,1.17,1.93H1.89l1.15-1.91ZM26.82,26.61c.3-.07.49-.35.47-.66v-3.97c0-2.62,0-5.24.01-7.86l.06-.07h1.25v1.27c0,4.2,0,8.4-.01,12.59l-.08.04H3.43l-.08-.04c0-.05,0-.1,0-.16v-13.49c0-.07.01-.15.02-.22h1.23l.06.07c0,.14.01.28.01.43v11.27c0,.4.11.7.55.79h15.66c1.99,0,3.97,0,5.96,0h0ZM25.95,25.27c-.11.04-.23.07-.35.08-6.42,0-12.83,0-19.25,0-.12-.01-.24-.04-.35-.08,0-3.74,0-7.48,0-11.22l.08-.04h19.79l.08.04c0,3.74,0,7.48,0,11.22h0Z"/>
        <path id="Path_47" data-name="Path 47" class="cls-1" d="M31.94,31.36l-.06.24.06-.24Z"/>
        <path id="Path_48" data-name="Path 48" class="cls-1" d="M31.95.47v.16c0-.06,0-.1,0-.16Z"/>
        <path id="Path_49" data-name="Path 49" class="cls-1" d="M31.89,28.39c.02.05.04.11.05.17-.02-.05-.03-.11-.05-.17Z"/>
        <path id="Path_50" data-name="Path 50" class="cls-1" d="M31.94,3.43c-.02.06-.04.11-.05.17.02-.06.04-.11.05-.17Z"/>
        <path id="Path_51" data-name="Path 51" class="cls-1" d="M30.01,14.06l-.06.07.06-.07Z"/>
        <path id="Path_52" data-name="Path 52" class="cls-1" d="M.61,31.97l-.09-.06.09.06Z"/>
        <path id="Path_53" data-name="Path 53" class="cls-1" d="M.06,3.52l-.05-.09.05.09Z"/>
        <path id="Path_54" data-name="Path 54" class="cls-1" d="M29.96,27.84l.06.07-.06-.07Z"/>
        <path id="Path_55" data-name="Path 55" class="cls-1" d="M1.93,28l.06-.07-.06.07Z"/>
        <path id="Path_56" data-name="Path 56" class="cls-1" d="M0,.63l.06-.09-.06.09Z"/>
        <path id="Path_57" data-name="Path 57" class="cls-1" d="M0,28.56l.05-.09s-.05.09-.05.09Z"/>
        <path id="Path_58" data-name="Path 58" class="cls-1" d="M.52.08l.09-.06-.09.06Z"/>
        <path id="Path_60" data-name="Path 60" class="cls-1" d="M.05,31.46l-.05-.1.05.1Z"/>
        <path id="Path_62" data-name="Path 62" class="cls-1" d="M5.2,26.61c.12.03.24.06.36.07h20.86c.14-.01.27-.03.4-.07-1.99,0-3.97,0-5.96,0-5.22,0-10.44,0-15.66,0Z"/>
        <path id="Path_63" data-name="Path 63" class="cls-1" d="M25.95,25.27c-.64,0-1.27,0-1.91,0H6.46c-.16,0-.31,0-.47,0,.11.04.23.07.35.08,6.42,0,12.83,0,19.25,0,.12-.01.24-.04.35-.08Z"/>
        <path id="Path_64" data-name="Path 64" class="cls-1" d="M30.02,9.2v.11l.05.03s-.04-.09-.05-.13Z"/>
        <path id="Path_65" data-name="Path 65" class="cls-1" d="M25.87,14.01l.08.04-.08-.04Z"/>
        <path id="Path_66" data-name="Path 66" class="cls-1" d="M6,14.05l.08-.04-.08.04Z"/>
        <path id="Path_67" data-name="Path 67" class="cls-1" d="M30.08,12.63l-.08.03.08-.03Z"/>
        <path id="Path_68" data-name="Path 68" class="cls-1" d="M27.3,14.12l.06-.07-.06.07Z"/>
        <path id="Path_69" data-name="Path 69" class="cls-1" d="M1.92,9.28l-.05.04.02.03.04-.04v-.03s-.01,0-.01,0Z"/>
        <path id="Path_70" data-name="Path 70" class="cls-1" d="M4.58,14.06l.06.07-.06-.07Z"/>
        <path id="Path_71" data-name="Path 71" class="cls-1" d="M3.04,7.41l.07-.06-.07.06Z"/>
        <path id="Path_72" data-name="Path 72" class="cls-1" d="M3.03,4.07l.08-.04-.08.04Z"/>
        <path id="Path_73" data-name="Path 73" class="cls-1" d="M28.83,4.03l.1.02-.1-.02Z"/>
        <path id="Path_74" data-name="Path 74" class="cls-1" d="M1.35,1.42l.05-.05-.05.05Z"/>
        <path id="Path_75" data-name="Path 75" class="cls-1" d="M28.6,27.92l-.08.04.08-.04Z"/>
        <path id="Path_76" data-name="Path 76" class="cls-1" d="M30.54,1.37l.05.05-.05-.05Z"/>
        <path id="Path_77" data-name="Path 77" class="cls-1" d="M3.43,27.96l-.08-.04.08.04Z"/>
        <path id="Path_78" data-name="Path 78" class="cls-1" d="M30.59,30.57l-.05.05.05-.05Z"/>
        <path id="Path_79" data-name="Path 79" class="cls-1" d="M1.4,30.62l-.05-.05.05.05Z"/>
        <path id="Path_80" data-name="Path 80" class="cls-1" d="M1.94,12.64s-.02,0-.03.01v.03l.03-.04h0Z"/>
        <path id="Path_81" data-name="Path 81" class="cls-1" d="M14.76,20.8c.21-.14.4-.31.57-.5.15-.25.09-.57-.14-.75-1.25-1.27-2.51-2.53-3.77-3.78-.24-.23-.62-.24-.86,0-.28.17-.36.54-.19.82,0,0,.01.02.02.03.06.1.13.19.21.27,1.17,1.17,2.33,2.34,3.5,3.5.21.16.43.3.67.42h0Z"/>
        <path id="Path_82" data-name="Path 82" class="cls-1" d="M9.51,18.83c-.24.18-.51.29-.59.48-.07.23-.03.48.11.67.62.68,1.28,1.32,1.94,1.96.26.2.62.2.88,0,.27-.19.33-.57.13-.84-.02-.03-.04-.05-.06-.07-.54-.62-1.13-1.21-1.72-1.79-.22-.16-.45-.3-.7-.41h0Z"/>
      </g>
    </g>
  </g>
</svg>